<svg width="60" height="60" viewBox="0 0 60 60" fill="none" xmlns="http://www.w3.org/2000/svg">
<path fill-rule="evenodd" clip-rule="evenodd" d="M24.2703 39C22.6203 39 21.2703 40.35 21.2703 42C21.2703 43.65 22.6203 45 24.2703 45C25.9203 45 27.2703 43.65 27.2703 42C27.2703 40.35 25.9203 39 24.2703 39ZM15.2703 15V18H18.2703L23.6703 29.4L21.5703 33C21.4203 33.45 21.2703 34.05 21.2703 34.5C21.2703 36.15 22.6203 37.5 24.2703 37.5H42.2703V34.5H24.8703C24.7203 34.5 24.5703 34.35 24.5703 34.2V34.05L25.9203 31.5H37.0203C38.2203 31.5 39.1203 30.9 39.5703 30L44.9703 20.25C45.2703 19.95 45.2703 19.8 45.2703 19.5C45.2703 18.6 44.6703 18 43.7703 18H21.5703L20.2203 15L15.2703 15ZM39.2703 39C37.6203 39 36.2703 40.35 36.2703 42C36.2703 43.65 37.6203 45 39.2703 45C40.9203 45 42.2703 43.65 42.2703 42C42.2703 40.35 40.9203 39 39.2703 39Z" fill="black"/>
<ellipse cx="18.2703" cy="42" rx="10" ry="10" fill="#6F4E37"/>
<path d="M21.7736 46.912V48H15.6296V46.912H18.0856V39.096C18.0856 38.8613 18.0936 38.624 18.1096 38.384L16.0696 40.136C16.0003 40.1947 15.931 40.232 15.8616 40.248C15.7923 40.2587 15.7283 40.2587 15.6696 40.248C15.611 40.2373 15.555 40.216 15.5016 40.184C15.4536 40.152 15.4163 40.1173 15.3896 40.08L14.9416 39.464L18.3576 36.512H19.5176V46.912H21.7736Z" fill="#FEFEFE"/>
</svg>
